<svg width="640" height="640" viewBox="0 0 640 640" fill="none" xmlns="http://www.w3.org/2000/svg">
<path d="M0 321.85C0 146.149 142.434 3.71484 318.135 3.71484C412.805 3.71484 497.864 45.1264 556.073 110.67L485.593 173.262C444.515 127.009 384.745 97.977 318.135 97.977C194.493 97.977 94.2621 198.208 94.2621 321.85C94.2621 445.491 194.493 545.722 318.135 545.722C384.745 545.722 444.515 516.691 485.593 470.437L556.073 533.03C497.864 598.573 412.805 639.984 318.135 639.984C142.434 639.984 0 497.551 0 321.85Z" fill="url(#paint0_linear_6100_12059)"/>
<path d="M176.393 322.305C264.141 328.43 311.517 374.975 318.476 462.029C318.52 462.611 319.323 462.611 319.368 462.029C326.372 374.975 373.703 328.386 461.451 322.305C462.031 322.305 462.031 321.455 461.451 321.411C373.703 315.285 326.327 268.74 319.368 181.686C319.323 181.105 318.52 181.105 318.476 181.686C311.472 268.74 264.141 315.33 176.393 321.411C175.813 321.411 175.813 322.26 176.393 322.305Z" fill="url(#paint1_linear_6100_12059)"/>
<defs>
<linearGradient id="paint0_linear_6100_12059" x1="277.348" y1="-420.465" x2="258.877" y2="857.724" gradientUnits="userSpaceOnUse">
<stop stop-color="#3E1866"/>
<stop offset="0.379808" stop-color="#C447EB"/>
<stop offset="0.826923" stop-color="#8191FF"/>
</linearGradient>
<linearGradient id="paint1_linear_6100_12059" x1="318.568" y1="-6.22632" x2="311.551" y2="558.732" gradientUnits="userSpaceOnUse">
<stop stop-color="#3E1866"/>
<stop offset="0.379808" stop-color="#C447EB"/>
<stop offset="0.826923" stop-color="#8191FF"/>
</linearGradient>
</defs>
</svg>
