<svg width="72" height="72" viewBox="0 0 35 39" fill="none" xmlns="http://www.w3.org/2000/svg">
    <path d="M0 19.5C0 8.73045 8.73045 0 19.5 0C25.3028 0 30.5165 2.53831 34.0844 6.55577L29.7643 10.3924C27.2464 7.55726 23.5829 5.77778 19.5 5.77778C11.9214 5.77778 5.77778 11.9214 5.77778 19.5C5.77778 27.0786 11.9214 33.2222 19.5 33.2222C23.5829 33.2222 27.2464 31.4427 29.7643 28.6076L34.0844 32.4442C30.5165 36.4617 25.3028 39 19.5 39C8.73045 39 0 30.2696 0 19.5Z" fill="url(#paint0_linear_4055_31370)"/>
    <path d="M10.8118 19.5274C16.1903 19.9029 19.0942 22.7558 19.5208 28.0918C19.5235 28.1274 19.5727 28.1274 19.5755 28.0918C20.0048 22.7558 22.9059 19.9001 28.2844 19.5274C28.32 19.5274 28.32 19.4753 28.2844 19.4726C22.9059 19.0971 20.002 16.2442 19.5755 10.9082C19.5727 10.8726 19.5235 10.8726 19.5208 10.9082C19.0915 16.2442 16.1903 19.0999 10.8118 19.4726C10.7763 19.4726 10.7763 19.5246 10.8118 19.5274Z" fill="white"/>
    <defs>
        <linearGradient id="paint0_linear_4055_31370" x1="28.2148" y1="-5.44074" x2="-18.1065" y2="51.3472" gradientUnits="userSpaceOnUse">
            <stop offset="0.0192308" stop-color="#ECB1FF"/>
            <stop offset="0.375" stop-color="#C447EB"/>
            <stop offset="1" stop-color="#3E1866"/>
        </linearGradient>
    </defs>
</svg>
