<svg width="35" height="39" viewBox="0 0 35 39" fill="none" xmlns="http://www.w3.org/2000/svg">
    <path
        d="M0 19.5C0 8.73045 8.73045 0 19.5 0C25.3028 0 30.5165 2.53831 34.0844 6.55577L29.7643 10.3924C27.2464 7.55726 23.5829 5.77778 19.5 5.77778C11.9214 5.77778 5.77778 11.9214 5.77778 19.5C5.77778 27.0786 11.9214 33.2222 19.5 33.2222C23.5829 33.2222 27.2464 31.4427 29.7643 28.6076L34.0844 32.4442C30.5165 36.4617 25.3028 39 19.5 39C8.73045 39 0 30.2696 0 19.5Z"
        fill="url(#paint0_linear_4312_11603)" />
    <path
        d="M10.8118 19.5273C16.1903 19.9027 19.0942 22.7557 19.5208 28.0917C19.5235 28.1273 19.5727 28.1273 19.5755 28.0917C20.0048 22.7557 22.9059 19.9 28.2844 19.5273C28.32 19.5273 28.32 19.4752 28.2844 19.4725C22.9059 19.097 20.002 16.244 19.5755 10.9081C19.5727 10.8724 19.5235 10.8724 19.5208 10.9081C19.0915 16.244 16.1903 19.0997 10.8118 19.4725C10.7763 19.4725 10.7763 19.5245 10.8118 19.5273Z"
        fill="url(#paint1_linear_4312_11603)" />
    <defs>
        <linearGradient id="paint0_linear_4312_11603" x1="28.2148" y1="-5.44074" x2="-18.1065"
            y2="51.3472" gradientUnits="userSpaceOnUse">
            <stop stop-color="#ECB1FF" />
            <stop offset="0.0961538" stop-color="#C447EB" />
            <stop offset="1" stop-color="#007AFF" />
        </linearGradient>
        <linearGradient id="paint1_linear_4312_11603" x1="25.293" y1="8.47668" x2="5.64536"
            y2="36.4996" gradientUnits="userSpaceOnUse">
            <stop stop-color="#ECB1FF" />
            <stop offset="0.0961538" stop-color="#C447EB" />
            <stop offset="1" stop-color="#007AFF" />
        </linearGradient>
    </defs>
</svg>
