<svg width="24" height="24" viewBox="0 0 24 24" fill="none" xmlns="http://www.w3.org/2000/svg">
    <path d="M4 12.5C4.82843 12.5 5.5 13.1716 5.5 14V20C5.5 20.8284 4.82843 21.5 4 21.5C3.17157 21.5 2.5 20.8284 2.5 20L2.5 14C2.5 13.1716 3.17157 12.5 4 12.5Z" fill="currentColor"/>
    <path d="M10 7.5C10.8284 7.5 11.5 8.17157 11.5 9V20C11.5 20.8284 10.8284 21.5 10 21.5C9.17157 21.5 8.5 20.8284 8.5 20V9C8.5 8.17157 9.17157 7.5 10 7.5Z" fill="currentColor"/>
    <path d="M16 12.5C16.8284 12.5 17.5 13.1716 17.5 14V20C17.5 20.8284 16.8284 21.5 16 21.5C15.1716 21.5 14.5 20.8284 14.5 20V14C14.5 13.1716 15.1716 12.5 16 12.5Z" fill="currentColor"/>
    <path d="M22 8.5C22.8284 8.5 23.5 9.17157 23.5 10V20C23.5 20.8284 22.8284 21.5 22 21.5C21.1716 21.5 20.5 20.8284 20.5 20V10C20.5 9.17157 21.1716 8.5 22 8.5Z" fill="currentColor"/>
</svg>
