<svg width="18" height="18" viewBox="0 0 18 18" fill="none" xmlns="http://www.w3.org/2000/svg">
    <path d="M3.0054 1.94428L4.41961 3.35849C4.7125 3.65139 4.7125 4.12626 4.41961 4.41915C4.12672 4.71205 3.65184 4.71205 3.35895 4.41915L1.94474 3.00494C1.65184 2.71205 1.65184 2.23717 1.94474 1.94428C2.23763 1.65139 2.7125 1.65139 3.0054 1.94428Z" fill="currentColor"/>
    <path d="M15.0262 13.9651L16.0869 15.0258C16.3798 15.3186 16.3798 15.7935 16.0869 16.0864C15.794 16.3793 15.3191 16.3793 15.0262 16.0864L13.9656 15.0258C13.6727 14.7329 13.6727 14.258 13.9656 13.9651C14.2584 13.6722 14.7333 13.6722 15.0262 13.9651Z" fill="currentColor"/>
    <path d="M6.89448 7.95469L7.95514 9.01535C8.24804 9.30824 8.24804 9.78311 7.95514 10.076C7.66225 10.3689 7.18738 10.3689 6.89448 10.076L5.83382 9.01535C5.54093 8.72245 5.54093 8.24758 5.83382 7.95469C6.12672 7.66179 6.60159 7.66179 6.89448 7.95469Z" fill="currentColor"/>
    <path d="M9.0158 5.83337L10.0765 6.89403C10.3694 7.18692 10.3694 7.66179 10.0765 7.95469C9.78357 8.24758 9.3087 8.24758 9.0158 7.95469L7.95514 6.89403C7.66225 6.60113 7.66225 6.12626 7.95514 5.83337C8.24804 5.54047 8.72291 5.54047 9.0158 5.83337Z" fill="currentColor"/>
    <path d="M10.0765 13.9651C11.1504 15.039 12.8916 15.039 13.9656 13.9651C15.0395 12.8912 15.0395 11.1499 13.9656 10.076L13.4352 9.54568L9.54613 13.4348L10.0765 13.9651ZM8.06908 14.079C7.71335 13.7232 7.71335 13.1463 8.06908 12.7905L12.791 8.06862C13.1468 7.71289 13.7236 7.71289 14.0795 8.06862L15.0262 9.01535C16.6859 10.6751 16.6859 13.366 15.0262 15.0258C13.3665 16.6855 10.6755 16.6855 9.0158 15.0258L8.06908 14.079Z" fill="currentColor"/>
    <path d="M8.3087 4.41915C7.23476 3.34521 5.49355 3.34521 4.41961 4.41915C3.34567 5.49309 3.34567 7.2343 4.41961 8.30824L4.94994 8.83857L8.83903 4.94948L8.3087 4.41915ZM10.3161 4.30521C10.6718 4.66107 10.6718 5.2379 10.3161 5.59375L5.59421 10.3156C5.23836 10.6714 4.66153 10.6714 4.30567 10.3156L3.35895 9.3689C1.69922 7.70917 1.69922 5.01822 3.35895 3.35849C5.01868 1.69876 7.70963 1.69876 9.36936 3.35849L10.3161 4.30521Z" fill="currentColor"/>
</svg>
