<svg width="18" height="18" viewBox="0 0 18 18" fill="none" xmlns="http://www.w3.org/2000/svg">
    <path d="M1 4.5C1 2.567 2.567 1 4.5 1C6.433 1 8 2.567 8 4.5C8 6.433 6.433 8 4.5 8C2.567 8 1 6.433 1 4.5Z" fill="currentColor"/>
    <path d="M4.5 17C2.56701 17 1 15.433 1 13.5C1 11.567 2.56701 9.99998 4.5 9.99998C6.433 9.99998 8 11.567 8 13.5C8 15.433 6.433 17 4.5 17Z" fill="currentColor" fill-opacity="0.3"/>
    <path d="M17 13.5C17 15.433 15.433 17 13.5 17C11.567 17 10 15.433 10 13.5C10 11.567 11.567 9.99998 13.5 9.99998C15.433 9.99998 17 11.567 17 13.5Z" fill="currentColor" fill-opacity="0.3"/>
    <path d="M13.5 1C15.433 1 17 2.567 17 4.5C17 6.433 15.433 8 13.5 8C11.567 8 10 6.433 10 4.5C10 2.567 11.567 1 13.5 1Z" fill="currentColor" fill-opacity="0.3"/>
</svg>
