<svg width="18" height="18" viewBox="0 0 18 18" fill="none" xmlns="http://www.w3.org/2000/svg">
    <path d="M3 8C3 6.89543 3.89543 6 5 6H13C14.1046 6 15 6.89543 15 8V13C15 14.1046 14.1046 15 13 15H5C3.89543 15 3 14.1046 3 13V8Z" fill="currentColor" fill-opacity="0.4"/>
    <path d="M7 9C7.55228 9 8 9.44772 8 10C8 10.5523 7.55228 11 7 11C6.44772 11 6 10.5523 6 10C6 9.44772 6.44772 9 7 9Z" fill="currentColor"/>
    <path d="M11 9C11.5523 9 12 9.44772 12 10C12 10.5523 11.5523 11 11 11C10.4477 11 10 10.5523 10 10C10 9.44772 10.4477 9 11 9Z" fill="currentColor"/>
    <path fill-rule="evenodd" clip-rule="evenodd" d="M9 1C9.82843 1 10.5 1.67157 10.5 2.5C10.5 3.05495 10.198 3.5384 9.75 3.79785V5C9.75 5.08804 9.73197 5.17152 9.7041 5.25H13C14.5188 5.25 15.75 6.48122 15.75 8V8.03223C15.83 8.01163 15.9136 8 16 8C16.5523 8 17 8.44772 17 9V12L16.9951 12.1025C16.9438 12.6067 16.5177 13 16 13C15.9135 13 15.83 12.9874 15.75 12.9668V13C15.75 14.5188 14.5188 15.75 13 15.75H5C3.48122 15.75 2.25 14.5188 2.25 13V12.9668C2.16996 12.9874 2.08647 13 2 13C1.48232 13 1.05621 12.6067 1.00488 12.1025L1 12V9C1 8.44772 1.44772 8 2 8C2.08639 8 2.17004 8.01163 2.25 8.03223V8C2.25 6.48122 3.48122 5.25 5 5.25H8.2959C8.26803 5.17152 8.25 5.08804 8.25 5V3.79785C7.802 3.5384 7.5 3.05495 7.5 2.5C7.5 1.67157 8.17157 1 9 1ZM5 6.75C4.30965 6.75 3.75 7.30965 3.75 8V13C3.75 13.6904 4.30964 14.25 5 14.25H13C13.6904 14.25 14.25 13.6904 14.25 13V8C14.25 7.30965 13.6904 6.75 13 6.75H5Z" fill="currentColor"/>
</svg>
