<svg width="18" height="18" viewBox="0 0 18 18" fill="none" xmlns="http://www.w3.org/2000/svg">
    <path d="M11 6.5C10.7239 6.5 10.5 6.27614 10.5 6C10.5 5.72386 10.7239 5.5 11 5.5L13.5 5.5C13.7761 5.50001 14 5.72386 14 6C14 6.27614 13.7761 6.5 13.5 6.5L11 6.5Z" fill="currentColor"/>
    <path fill-rule="evenodd" clip-rule="evenodd" d="M2.99999 8.75C2.03349 8.75 1.24999 7.9665 1.24999 7L1.24999 5C1.24999 4.0335 2.0335 3.25 2.99999 3.25L15 3.25C15.9665 3.25001 16.75 4.03351 16.75 5V7C16.75 7.62055 16.4265 8.16486 15.9394 8.47559C15.186 8.17018 14.363 8 13.5 8C12.4047 8 11.3731 8.27157 10.4678 8.75L2.99999 8.75ZM15 7.25C15.1381 7.25 15.25 7.13807 15.25 7V5C15.25 4.86193 15.1381 4.75001 15 4.75L2.99999 4.75C2.86192 4.75 2.74999 4.86193 2.74999 5L2.74999 7C2.74999 7.13807 2.86192 7.25 2.99999 7.25L15 7.25Z" fill="currentColor"/>
    <path d="M2.99999 14.75C2.03349 14.75 1.24999 13.9665 1.24999 13L1.24999 11C1.24999 10.0335 2.0335 9.25 2.99999 9.25L9.66894 9.25C9.0991 9.66653 8.60036 10.1736 8.19238 10.75L2.99999 10.75C2.86192 10.75 2.74999 10.8619 2.74999 11L2.74999 13C2.74999 13.1381 2.86192 13.25 2.99999 13.25H7.12109C7.04227 13.6546 6.99999 14.0724 6.99999 14.5C6.99999 14.5837 7.00369 14.667 7.00683 14.75H2.99999Z" fill="currentColor"/>
    <path d="M9.24999 14C9.24999 13.0758 9.81933 12.2867 10.626 11.96C11.0457 10.9561 12.0362 10.2501 13.1934 10.25C14.6148 10.25 15.7854 11.3162 15.9531 12.6924C16.4389 13.0954 16.7499 13.7042 16.75 14.3867C16.75 15.104 16.345 15.6056 15.9023 15.8955C15.4782 16.1732 14.9701 16.2988 14.5488 16.2988H11.4512C10.1746 16.2986 9.24999 15.1522 9.24999 14ZM10.75 14C10.75 14.4509 11.1246 14.7985 11.4512 14.7988H14.5488C14.7081 14.7987 14.9249 14.7429 15.081 14.6406C15.2189 14.5503 15.25 14.4711 15.25 14.3867C15.2499 14.1186 15.099 13.8842 14.874 13.7656C14.6199 13.6316 14.465 13.3643 14.4746 13.0772C14.4748 13.0702 14.4744 13.0629 14.4746 13.0576C14.4748 13.0518 14.4755 13.0469 14.4756 13.043V13.0322C14.4756 12.3241 13.9015 11.75 13.1934 11.75C12.5874 11.7501 12.078 12.1714 11.9453 12.7383C11.8762 13.0338 11.6354 13.2585 11.3359 13.3076C11.0035 13.3623 10.75 13.6524 10.75 14Z" fill="currentColor"/>
</svg>
