<svg width="18" height="18" viewBox="0 0 18 18" fill="none" xmlns="http://www.w3.org/2000/svg">
    <path d="M9.5 5.25C9.91421 5.25 10.25 5.58579 10.25 6C10.25 6.41421 9.91421 6.75 9.5 6.75H2C1.58579 6.75 1.25 6.41421 1.25 6C1.25 5.58579 1.58579 5.25 2 5.25H9.5Z" fill="currentColor"/>
    <path d="M16.5 5.25C16.9142 5.25 17.25 5.58579 17.25 6C17.25 6.41421 16.9142 6.75 16.5 6.75H15C14.5858 6.75 14.25 6.41421 14.25 6C14.25 5.58579 14.5858 5.25 15 5.25H16.5Z" fill="currentColor"/>
    <path d="M16 12.25C16.4142 12.25 16.75 12.5858 16.75 13C16.75 13.4142 16.4142 13.75 16 13.75H9C8.58579 13.75 8.25 13.4142 8.25 13C8.25 12.5858 8.58579 12.25 9 12.25H16Z" fill="currentColor"/>
    <path d="M3.5 12.25C3.91421 12.25 4.25 12.5858 4.25 13C4.25 13.4142 3.91421 13.75 3.5 13.75H2C1.58579 13.75 1.25 13.4142 1.25 13C1.25 12.5858 1.58579 12.25 2 12.25H3.5Z" fill="currentColor"/>
    <path d="M13.5 6C13.5 5.17157 12.8284 4.5 12 4.5C11.1716 4.5 10.5 5.17157 10.5 6C10.5 6.82843 11.1716 7.5 12 7.5V9C10.3431 9 9 7.65685 9 6C9 4.34315 10.3431 3 12 3C13.6569 3 15 4.34315 15 6C15 7.65685 13.6569 9 12 9V7.5C12.8284 7.5 13.5 6.82843 13.5 6Z" fill="currentColor"/>
    <path d="M7.5 13C7.5 12.1716 6.82843 11.5 6 11.5C5.17157 11.5 4.5 12.1716 4.5 13C4.5 13.8284 5.17157 14.5 6 14.5V16C4.34315 16 3 14.6569 3 13C3 11.3431 4.34315 10 6 10C7.65685 10 9 11.3431 9 13C9 14.6569 7.65685 16 6 16V14.5C6.82843 14.5 7.5 13.8284 7.5 13Z" fill="currentColor"/>
</svg>
