<svg width="18" height="18" viewBox="0 0 18 18" fill="none" xmlns="http://www.w3.org/2000/svg">
    <path d="M7.8457 3C8.48295 3 9 3.51705 9 4.1543C9.00024 4.79134 9.5172 5.30762 10.1543 5.30762H13.6543C14.3975 5.30786 15 5.91099 15 6.6543V7.53516C15 7.79167 15.2083 8 15.4648 8C15.7473 8.00022 15.9638 8.25059 15.9238 8.53027L15.8564 9H8C5.79086 9 4 10.7909 4 13V14C4 14.3453 4.04371 14.6804 4.12598 15H4C2.89543 15 2 14.1046 2 13V5C2 3.89543 2.89543 3 4 3H7.8457Z" fill="currentColor" fill-opacity="0.4"/>
    <path fill-rule="evenodd" clip-rule="evenodd" d="M7.8457 2.25C8.89717 2.25 9.75 3.10283 9.75 4.1543C9.75024 4.37713 9.93141 4.55762 10.1543 4.55762H13.6543C14.8118 4.55786 15.75 5.49677 15.75 6.6543V7.25H16C16.2174 7.25 16.424 7.34455 16.5664 7.50879C16.7088 7.67304 16.7729 7.89122 16.7422 8.10645L16.667 8.62695C16.6666 8.62983 16.6674 8.63287 16.667 8.63574L16.6152 9H15.0986L15.1338 8.75H4.56543L3.44922 12.6562C3.28747 13.2224 3.5432 13.7848 4.00098 14.0654C4.01066 14.6689 4.1537 15.2398 4.40234 15.75H4C2.48122 15.75 1.25 14.5188 1.25 13V5C1.25 3.48122 2.48122 2.25 4 2.25H7.8457ZM4 3.75C3.30964 3.75 2.75 4.30964 2.75 5V9.64453L3.2793 7.79395C3.37133 7.47204 3.66519 7.25001 4 7.25H14.25V6.6543C14.25 6.3252 13.9833 6.05786 13.6543 6.05762H10.1543C9.10298 6.05762 8.25024 5.20556 8.25 4.1543C8.25 3.93126 8.06874 3.75 7.8457 3.75H4Z" fill="currentColor"/>
    <path d="M12.5 12.75C12.9142 12.75 13.25 13.0858 13.25 13.5C13.25 13.9142 12.9142 14.25 12.5 14.25H10.5C10.0858 14.25 9.75 13.9142 9.75 13.5C9.75 13.0858 10.0858 12.75 10.5 12.75H12.5Z" fill="currentColor"/>
    <path d="M16.75 13.5C16.75 15.4172 14.9372 16.75 13 16.75C12.5858 16.75 12.25 16.4142 12.25 16C12.25 15.5858 12.5858 15.25 13 15.25C14.3765 15.25 15.25 14.3443 15.25 13.5C15.25 12.6557 14.3765 11.75 13 11.75C12.5858 11.75 12.25 11.4142 12.25 11C12.25 10.5858 12.5858 10.25 13 10.25C14.9372 10.25 16.75 11.5828 16.75 13.5Z" fill="currentColor"/>
    <path d="M6.25 13.5C6.25 11.5828 8.06278 10.25 10 10.25C10.4142 10.25 10.75 10.5858 10.75 11C10.75 11.4142 10.4142 11.75 10 11.75C8.62351 11.75 7.75 12.6557 7.75 13.5C7.75 14.3443 8.62351 15.25 10 15.25C10.4142 15.25 10.75 15.5858 10.75 16C10.75 16.4142 10.4142 16.75 10 16.75C8.06278 16.75 6.25 15.4172 6.25 13.5Z" fill="currentColor"/>
</svg>
