<svg width="18" height="18" viewBox="0 0 18 18" fill="none" xmlns="http://www.w3.org/2000/svg">
    <path d="M14.25 8C14.25 7.30964 13.6904 6.75 13 6.75H5C4.30964 6.75 3.75 7.30964 3.75 8V14C3.75 14.6904 4.30964 15.25 5 15.25H13C13.6904 15.25 14.25 14.6904 14.25 14V8ZM15.75 14C15.75 15.5188 14.5188 16.75 13 16.75H5C3.48122 16.75 2.25 15.5188 2.25 14V8C2.25 6.48122 3.48122 5.25 5 5.25H13C14.5188 5.25 15.75 6.48122 15.75 8V14Z" fill="currentColor"/>
    <path d="M10.25 6V4C10.25 3.30964 9.69036 2.75 9 2.75C8.30964 2.75 7.75 3.30964 7.75 4V6C7.75 6.41421 7.41421 6.75 7 6.75C6.58579 6.75 6.25 6.41421 6.25 6V4C6.25 2.48122 7.48122 1.25 9 1.25C10.5188 1.25 11.75 2.48122 11.75 4V6C11.75 6.41421 11.4142 6.75 11 6.75C10.5858 6.75 10.25 6.41421 10.25 6Z" fill="currentColor"/>
    <path d="M11 11C11 12.1046 10.1046 13 9 13C7.89543 13 7 12.1046 7 11C7 9.89543 7.89543 9 9 9C10.1046 9 11 9.89543 11 11Z" fill="currentColor"/>
</svg>
