<svg width="18" height="18" viewBox="0 0 18 18" fill="none" xmlns="http://www.w3.org/2000/svg">
    <path d="M4.41406 6.53141C4.67282 6.20797 5.1453 6.15547 5.46875 6.41423C5.7922 6.67298 5.84469 7.14547 5.58594 7.46891L3.96094 9.50016L5.58594 11.5314C5.84469 11.8549 5.7922 12.3273 5.46875 12.5861C5.1453 12.8449 4.67282 12.7924 4.41406 12.4689L2.41406 9.96891C2.19493 9.695 2.19493 9.30533 2.41406 9.03141L4.41406 6.53141Z" fill="currentColor"/>
    <path d="M13.5859 12.4689C13.3272 12.7924 12.8547 12.8449 12.5312 12.5861C12.2078 12.3273 12.1553 11.8549 12.4141 11.5314L14.0391 9.50016L12.4141 7.46891C12.1553 7.14547 12.2078 6.67298 12.5313 6.41423C12.8547 6.15547 13.3272 6.20797 13.5859 6.53141L15.5859 9.03142C15.8051 9.30533 15.8051 9.695 15.5859 9.96891L13.5859 12.4689Z" fill="currentColor"/>
    <path d="M10.2832 2.27946C10.4051 1.88365 10.8249 1.66157 11.2207 1.78337C11.6165 1.90524 11.8386 2.32502 11.7168 2.72087L7.7168 15.7209C7.59493 16.1167 7.17515 16.3388 6.7793 16.217C6.38349 16.0951 6.1614 15.6753 6.2832 15.2795L10.2832 2.27946Z" fill="currentColor"/>
</svg>
