<svg width="18" height="18" viewBox="0 0 18 18" fill="none" xmlns="http://www.w3.org/2000/svg">
    <path d="M15.5 9C15.5 5.41015 12.5899 2.5 9 2.5C5.41015 2.5 2.5 5.41015 2.5 9C2.5 12.5899 5.41015 15.5 9 15.5V17C4.58172 17 1 13.4183 1 9C1 4.58172 4.58172 1 9 1C13.4183 1 17 4.58172 17 9C17 13.4183 13.4183 17 9 17V15.5C12.5899 15.5 15.5 12.5899 15.5 9Z" fill="currentColor"/>
    <path d="M8.331 12V7.158H9.699V12H8.331ZM6.576 12V10.929H11.184V12H6.576ZM6.666 8.229V7.158H9.402V8.229H6.666ZM8.304 6.618V5.493H9.69V6.618H8.304Z" fill="currentColor"/>
</svg>
