<svg width="18" height="18" viewBox="0 0 18 18" fill="none" xmlns="http://www.w3.org/2000/svg">
<path d="M16.75 9C16.75 13.2802 13.2802 16.75 9 16.75C8.61184 16.75 8.29253 16.4551 8.25391 16.0771L8.25 16L8.25 13C8.25 12.5858 8.58579 12.25 9 12.25C9.41421 12.25 9.75 12.5858 9.75 13V15.2031C12.848 14.8325 15.25 12.1979 15.25 9C15.25 5.54822 12.4518 2.75 9 2.75C5.54822 2.75 2.75 5.54822 2.75 9C2.75 11.1231 3.80791 12.9992 5.42871 14.1299C5.76844 14.3669 5.8522 14.8351 5.61523 15.1748C5.37826 15.5143 4.91092 15.5971 4.57129 15.3604C2.56534 13.9612 1.25 11.6342 1.25 9C1.25 4.71979 4.7198 1.25 9 1.25C13.2802 1.25 16.75 4.71979 16.75 9Z" fill="currentColor" fill-opacity="0.4"/>
<path d="M13 9C13 11.2091 11.2091 13 9 13C6.79086 13 5 11.2091 5 9L5 8C5 7.44772 5.44772 7 6 7H6.25V6C6.25 5.58579 6.58579 5.25 7 5.25C7.41421 5.25 7.75 5.58579 7.75 6L7.75 7L10.25 7V6C10.25 5.58579 10.5858 5.25 11 5.25C11.4142 5.25 11.75 5.58579 11.75 6V7H12C12.5523 7 13 7.44772 13 8V9Z" fill="currentColor"/>
</svg>
