<svg width="12" height="12" viewBox="0 0 12 12" fill="none" xmlns="http://www.w3.org/2000/svg">
    <path d="M2 6.25C2.41421 6.25 2.75 6.58579 2.75 7V10C2.75 10.4142 2.41421 10.75 2 10.75C1.58579 10.75 1.25 10.4142 1.25 10L1.25 7C1.25 6.58579 1.58579 6.25 2 6.25Z" fill="currentColor"/>
    <path d="M5 3.75C5.41421 3.75 5.75 4.08579 5.75 4.5V10C5.75 10.4142 5.41421 10.75 5 10.75C4.58579 10.75 4.25 10.4142 4.25 10V4.5C4.25 4.08579 4.58579 3.75 5 3.75Z" fill="currentColor"/>
    <path d="M8 6.25C8.41421 6.25 8.75 6.58579 8.75 7V10C8.75 10.4142 8.41421 10.75 8 10.75C7.58579 10.75 7.25 10.4142 7.25 10V7C7.25 6.58579 7.58579 6.25 8 6.25Z" fill="currentColor"/>
    <path d="M11 4.25C11.4142 4.25 11.75 4.58579 11.75 5V10C11.75 10.4142 11.4142 10.75 11 10.75C10.5858 10.75 10.25 10.4142 10.25 10V5C10.25 4.58579 10.5858 4.25 11 4.25Z" fill="currentColor"/>
</svg>
