<svg width="18" height="18" viewBox="0 0 18 18" fill="none" xmlns="http://www.w3.org/2000/svg">
    <path d="M8.90723 1.68253C9.51719 0.898472 10.7695 1.45905 10.5918 2.43643L9.89941 6.24991H14.3105C14.994 6.25001 15.3977 7.0159 15.0117 7.57999L9.0459 16.2987C8.49515 17.1037 7.23443 16.6555 7.31543 15.6835L7.68457 11.2499H3.2041C2.49701 11.2496 2.09904 10.4361 2.5332 9.87784L8.90723 1.68253ZM4.5332 9.74991H8.3916C8.88875 9.75007 9.27957 10.1753 9.23828 10.6708L8.98242 13.7353L13.0791 7.74991H9.12012C8.58985 7.74991 8.18844 7.26966 8.2832 6.74796L8.71484 4.37296L4.5332 9.74991Z" fill="currentColor"/>
</svg>
