<svg width="18" height="18" viewBox="0 0 18 18" fill="currentColor" xmlns="http://www.w3.org/2000/svg">
    <path d="M12.25 4C12.25 3.30964 11.6904 2.75 11 2.75H4C3.30964 2.75 2.75 3.30964 2.75 4V14C2.75 14.6904 3.30964 15.25 4 15.25H12.25V4ZM13.75 16.75H4C2.48122 16.75 1.25 15.5188 1.25 14V4C1.25 2.48122 2.48122 1.25 4 1.25H11C12.5188 1.25 13.75 2.48122 13.75 4V16.75Z" fill="currentColor"/>
    <path d="M8 5.25C8.41421 5.25 8.75 5.58579 8.75 6C8.75 6.41421 8.41421 6.75 8 6.75H5C4.58579 6.75 4.25 6.41421 4.25 6C4.25 5.58579 4.58579 5.25 5 5.25H8Z" fill="currentColor"/>
    <path d="M7 8.25C7.41421 8.25 7.75 8.58579 7.75 9C7.75 9.41421 7.41421 9.75 7 9.75H5C4.58579 9.75 4.25 9.41421 4.25 9C4.25 8.58579 4.58579 8.25 5 8.25H7Z" fill="currentColor"/>
    <path d="M14.75 14V11.5C14.75 11.3619 14.6381 11.25 14.5 11.25H13C12.5858 11.25 12.25 10.9142 12.25 10.5C12.25 10.0858 12.5858 9.75 13 9.75H14.5C15.4665 9.75 16.25 10.5335 16.25 11.5V14C16.25 15.5188 15.0188 16.75 13.5 16.75H12C11.5858 16.75 11.25 16.4142 11.25 16C11.25 15.5858 11.5858 15.25 12 15.25H13.5C14.1904 15.25 14.75 14.6904 14.75 14Z" fill="currentColor"/>
    <path d="M9 11C9.41421 11 9.75 11.3358 9.75 11.75C9.75 12.1642 9.41421 12.5 9 12.5H5C4.58579 12.5 4.25 12.1642 4.25 11.75C4.25 11.3358 4.58579 11 5 11H9Z" fill="currentColor"/>
</svg>
