<svg width="18" height="18" viewBox="0 0 18 18" fill="none" xmlns="http://www.w3.org/2000/svg">
    <path d="M5.5 10.75C4.5335 10.75 3.75 11.5335 3.75 12.5C3.75 13.4665 4.5335 14.25 5.5 14.25C6.4665 14.25 7.25 13.4665 7.25 12.5C7.25 11.5335 6.4665 10.75 5.5 10.75ZM5.5 9.25C7.29493 9.25 8.75 10.7051 8.75 12.5C8.75 14.2949 7.29493 15.75 5.5 15.75C3.70508 15.75 2.25 14.2949 2.25 12.5C2.25 10.7051 3.70507 9.25 5.5 9.25Z" fill="currentColor"/>
    <path d="M5.5 3.75C4.5335 3.75 3.75 4.5335 3.75 5.5C3.75 6.4665 4.5335 7.25 5.5 7.25C6.4665 7.25 7.25 6.4665 7.25 5.5C7.25 4.5335 6.4665 3.75 5.5 3.75ZM5.5 2.25C7.29493 2.25 8.75 3.70507 8.75 5.5C8.75 7.29493 7.29493 8.75 5.5 8.75C3.70507 8.75 2.25 7.29493 2.25 5.5C2.25 3.70507 3.70507 2.25 5.5 2.25Z" fill="currentColor"/>
    <path d="M10.75 12.5C10.75 13.4665 11.5335 14.25 12.5 14.25C13.4665 14.25 14.25 13.4665 14.25 12.5C14.25 11.5335 13.4665 10.75 12.5 10.75C11.5335 10.75 10.75 11.5335 10.75 12.5ZM9.25 12.5C9.25 10.7051 10.7051 9.25 12.5 9.25C14.2949 9.25 15.75 10.7051 15.75 12.5C15.75 14.2949 14.2949 15.75 12.5 15.75C10.7051 15.75 9.25 14.2949 9.25 12.5Z" fill="currentColor"/>
    <path d="M11.75 7V3C11.75 2.58579 12.0858 2.25 12.5 2.25C12.9142 2.25 13.25 2.58579 13.25 3V7C13.25 7.41421 12.9142 7.75 12.5 7.75C12.0858 7.75 11.75 7.41421 11.75 7Z" fill="currentColor"/>
    <path d="M14.5 4.25C14.9142 4.25 15.25 4.58579 15.25 5C15.25 5.41421 14.9142 5.75 14.5 5.75H10.5C10.0858 5.75 9.75 5.41421 9.75 5C9.75 4.58579 10.0858 4.25 10.5 4.25H14.5Z" fill="currentColor"/>
</svg>
