<svg width="18" height="18" viewBox="0 0 18 18" fill="none" xmlns="http://www.w3.org/2000/svg">
    <path d="M4 2.75C3.30964 2.75 2.75 3.30964 2.75 4L2.75 14C2.75 14.6904 3.30965 15.25 4 15.25H6C6.69036 15.25 7.25 14.6904 7.25 14L7.25 4C7.25 3.30964 6.69036 2.75 6 2.75L4 2.75ZM6 1.25C7.51878 1.25 8.75 2.48122 8.75 4L8.75 14C8.75 15.5188 7.51878 16.75 6 16.75H4C2.48122 16.75 1.25 15.5188 1.25 14L1.25 4C1.25 2.48122 2.48122 1.25 4 1.25L6 1.25Z" fill="currentColor"/>
    <path d="M12 2.75C11.3096 2.75 10.75 3.30964 10.75 4L10.75 14C10.75 14.6904 11.3096 15.25 12 15.25H14C14.6904 15.25 15.25 14.6904 15.25 14L15.25 4C15.25 3.30964 14.6904 2.75 14 2.75L12 2.75ZM14 1.25C15.5188 1.25 16.75 2.48122 16.75 4L16.75 14C16.75 15.5188 15.5188 16.75 14 16.75H12C10.4812 16.75 9.25 15.5188 9.25 14L9.25 4C9.25 2.48122 10.4812 1.25 12 1.25L14 1.25Z" fill="currentColor"/>
    <path d="M12.5 11C12.5 10.7239 12.7239 10.5 13 10.5C13.2761 10.5 13.5 10.7239 13.5 11L13.5 13.5C13.5 13.7761 13.2761 14 13 14C12.7239 14 12.5 13.7761 12.5 13.5L12.5 11Z" fill="currentColor"/>
    <path d="M4.5 11C4.5 10.7239 4.72386 10.5 5 10.5C5.27614 10.5 5.5 10.7239 5.5 11V13.5C5.5 13.7761 5.27614 14 5 14C4.72386 14 4.5 13.7761 4.5 13.5L4.5 11Z" fill="currentColor"/>
</svg>
