<svg width="18" height="18" viewBox="0 0 18 18" fill="currentColor" xmlns="http://www.w3.org/2000/svg">
    <path d="M11.1906 2.56702C12.1788 1.57903 13.6829 1.42722 14.8332 2.10608L12.7814 4.15784C12.4885 4.4507 12.4886 4.92548 12.7814 5.21838C13.0743 5.51128 13.5491 5.51128 13.8419 5.21838L15.8947 3.16663C16.5734 4.31682 16.4207 5.82104 15.4328 6.8092C14.5092 7.7328 13.1348 7.92581 12.0197 7.39319L9.55972 9.85315L10.8986 11.192H10.8996C11.29 10.8018 11.9232 10.8018 12.3136 11.192L15.1418 14.0211C15.5323 14.4116 15.5323 15.0447 15.1418 15.4352L14.4347 16.1422C14.0442 16.5326 13.4111 16.5327 13.0207 16.1422L10.1925 13.3141C9.8263 12.9478 9.80349 12.368 10.1242 11.9752L10.1925 11.9L8.85269 10.5602L5.27359 14.1393C5.45179 14.8065 5.28046 15.5475 4.75699 16.0709C3.97593 16.8519 2.70988 16.8519 1.92886 16.0709C1.14791 15.2899 1.14794 14.0238 1.92886 13.2428C2.452 12.7197 3.19262 12.5476 3.85953 12.7252L7.43863 9.14612L4.52847 6.23596C4.09986 6.56432 3.4745 6.49441 3.13297 6.0553L1.62418 4.11584C1.46979 3.9169 1.48722 3.63388 1.66519 3.45569L2.45523 2.66565C2.63354 2.48734 2.91732 2.46982 3.11636 2.62463L5.05582 4.13342C5.49478 4.47513 5.56416 5.10041 5.2355 5.52893L8.14566 8.43909L10.6056 5.97913C10.0738 4.86427 10.2674 3.49023 11.1906 2.56702ZM4.04996 13.9498C3.65943 13.5594 3.0264 13.5593 2.63589 13.9498C2.2455 14.3403 2.24546 14.9734 2.63589 15.3639C3.02638 15.7544 3.65942 15.7543 4.04996 15.3639C4.44048 14.9734 4.44048 14.3404 4.04996 13.9498Z" fill="currentColor"/>
</svg>
