<svg width="18" height="18" viewBox="0 0 18 18" fill="none" xmlns="http://www.w3.org/2000/svg">
    <path d="M1 3.5C1 2.11929 2.11929 1 3.5 1C4.88071 1 6 2.11929 6 3.5C6 4.88071 4.88071 6 3.5 6C2.11929 6 1 4.88071 1 3.5Z" fill="currentColor"/>
    <path d="M12 14.5C12 13.1193 13.1193 12 14.5 12C15.8807 12 17 13.1193 17 14.5C17 15.8807 15.8807 17 14.5 17C13.1193 17 12 15.8807 12 14.5Z" fill="currentColor"/>
    <path d="M8.62398 3.75C11.1719 3.75 12.35 6.91557 10.4218 8.58105L7.55855 11.0537C6.682 11.8107 7.21772 13.25 8.37593 13.25H9.99995C10.4142 13.25 10.75 13.5858 10.75 14C10.75 14.4142 10.4142 14.75 9.99995 14.75H8.37593C5.82796 14.75 4.64987 11.5844 6.57808 9.91895L9.44136 7.44629C10.3179 6.68927 9.78218 5.25 8.62398 5.25H7.99995C7.58574 5.25 7.24995 4.91421 7.24995 4.5C7.24995 4.08579 7.58574 3.75 7.99995 3.75H8.62398Z" fill="currentColor" fill-opacity="0.7"/>
</svg>
